<?xml version="1.0" standalone="no"?>
<!DOCTYPE svg PUBLIC "-//W3C//DTD SVG 20010904//EN"
 "http://www.w3.org/TR/2001/REC-SVG-20010904/DTD/svg10.dtd">
<svg version="1.0" xmlns="http://www.w3.org/2000/svg"
 width="800.000000pt" height="600.000000pt" viewBox="0 0 800.000000 600.000000"
 preserveAspectRatio="xMidYMid meet">

<g transform="translate(0.000000,600.000000) scale(0.100000,-0.100000)"
fill="#000000" stroke="none">
<path d="M0 3000 l0 -3000 4000 0 4000 0 0 3000 0 3000 -4000 0 -4000 0 0
-3000z m4847 -600 c-20 -41 -52 -65 -362 -273 -427 -287 -427 -287 -490 -287
-63 0 -63 0 -490 287 -305 205 -342 232 -362 272 -22 42 -23 54 -23 278 0 307
-7 292 218 442 67 45 135 86 150 92 40 16 116 12 153 -7 47 -24 349 -226 349
-233 0 -3 -70 -53 -156 -111 -86 -58 -162 -114 -170 -125 -22 -31 -17 -89 10
-122 14 -16 81 -67 151 -113 164 -108 175 -109 308 -21 52 34 105 73 118 87
l24 26 5 551 5 552 25 44 c21 37 64 70 290 222 l265 178 3 -847 2 -847 -23
-45z"/>
</g>
</svg>
